<svg width="100" height="100" viewBox="0 0 100 100" fill="none" xmlns="http://www.w3.org/2000/svg">
<path d="M50 100C77.062 100 99 78.062 99 51C99 23.938 77.062 2 50 2C22.938 2 1 23.938 1 51C1 78.062 22.938 100 50 100Z" fill="#FEF0DF"/>
<path d="M62.7 59.2001C60.7 61.4001 57.9 62.5001 56.6 62.5001C55.1 62.5001 54.3 61.6001 54.1 60.2001C54 59.7001 54.1 59.1001 54.2 58.6001C54.7 55.5001 55.8 53.5001 55.8 53.0001C55.8 52.8001 55.7 52.7001 55.6 52.7001C54.6 52.7001 51.2 56.2001 50.7 58.5001L50.3 60.4001C50 61.7001 48.8 62.5001 47.9 62.5001C47.5 62.5001 47.2 62.3001 47.1 61.8001C47.1 61.6001 47.1 61.4001 47.1 61.2001L47.3 60.2001C45.5 61.6001 43.5 62.5001 42.6 62.5001C41.3 62.5001 40.6 61.8001 40.4 60.8001C39.6 61.9001 38.5 62.5001 37.3 62.5001C35.8 62.5001 34.4 61.5001 33.7 60.0001C32.7 61.1001 31.5 62.2001 30.1 63.1001C28 64.4001 25.7 65.5001 23 65.5001C20.5 65.5001 18.3 64.2001 17.2 63.1001C15.4 61.5001 14.5 59.0001 14.2 56.8001C13.3 49.8001 17.6 40.5001 24.3 36.5001C25.8 35.6001 27.5 35.1001 29.1 35.1001C32.3 35.1001 34.7 37.4001 35 40.1001C35.3 42.6001 34.3 44.7001 31.6 46.0001C30.2 46.7001 29.5 46.7001 29.3 46.3001C29.2 46.1001 29.2 45.7001 29.5 45.5001C32.1 43.4001 32.1 41.6001 31.8 39.1001C31.6 37.5001 30.6 36.5001 29.4 36.5001C24.2 36.5001 17 47.8001 18 56.0001C18.4 59.2001 20.4 62.9001 24.4 62.9001C25.7 62.9001 27.2 62.5001 28.4 61.9001C30.6 60.8001 31.9 59.9001 33.1 58.4001C32.8 54.6001 36.1 49.8001 40.9 49.8001C43 49.8001 44.7 50.6001 44.9 52.3001C45.2 54.4001 43.4 54.8001 42.7 54.8001C42.1 54.8001 41.2 54.6001 41.1 54.1001C41 53.5001 42.4 53.8001 42.2 52.5001C42.1 51.7001 41.2 51.4001 40.4 51.4001C37.4 51.4001 35.7 55.6001 36 58.2001C36.1 59.4001 36.8 60.6001 37.8 60.6001C38.7 60.6001 40 59.3001 40.4 57.5001C40.7 56.2001 41.9 55.4001 42.8 55.4001C43.3 55.4001 43.6 55.6001 43.6 56.1001C43.6 56.3001 43.6 56.5001 43.6 56.7001C43.5 57.2001 43.1 59.1001 43.1 59.4001C43.1 59.7001 43.3 60.2001 43.9 60.2001C44.4 60.2001 46 59.3001 47.6 57.9001C48.1 55.4001 48.7 52.3001 48.7 52.1001C48.9 51.1001 49.3 50.0001 51.3 50.0001C51.7 50.0001 52 50.2001 52.1 50.7001C52.1 50.9001 52.1 51.1001 52.1 51.3001L51.6 54.0001C53.4 51.6001 56.2 49.8001 57.9 49.8001C58.6 49.8001 59.2 50.2001 59.3 50.9001C59.4 51.3001 59.2 52.0001 59 52.8001C58.4 54.4001 57.7 56.9001 57.3 59.0001C57.2 59.5001 57.4 60.1001 58.2 60.1001C58.9 60.1001 61 59.3001 62.7 57.0001C62.7 56.7001 62.7 56.4001 62.7 56.0001C62.7 54.2001 62.8 52.8001 63.2 51.7001C63.5 50.6001 64.9 49.6001 65.8 49.6001C66.3 49.6001 66.6 49.9001 66.6 50.4001C66.6 50.6001 66.6 50.8001 66.5 51.0001C65.9 52.9001 65.5 54.6001 65.5 56.3001C65.5 57.3001 65.7 58.8001 65.9 59.6001C65.9 59.8001 66 59.9001 66.2 59.9001C66.5 59.9001 68.5 58.0001 69.9 55.6001C68.6 54.8001 67.9 53.3001 67.9 51.5001C67.9 48.5001 69.7 46.9001 71.5 46.9001C72.9 46.9001 74.1 47.9001 74.1 49.9001C74.1 51.2001 73.6 52.6001 72.9 54.0001C72.9 54.0001 73.2 54.0001 73.3 54.0001C74.4 54.0001 75.2 53.5001 75.7 52.9001C75.9 52.7001 76.1 52.5001 76.3 52.4001C77.7 50.7001 79.8 49.5001 82.2 49.5001C84.3 49.5001 86 50.3001 86.2 52.0001C86.5 54.1001 84.6 54.6001 84 54.6001C83.4 54.6001 82.4 54.4001 82.4 53.9001C82.3 53.4001 83.7 53.6001 83.6 52.3001C83.5 51.5001 82.6 51.1001 81.8 51.1001C79 51.1001 77.1 54.8001 77.4 57.9001C77.5 59.1001 78.1 60.3001 79.2 60.3001C80.1 60.3001 81.4 59.0001 81.9 57.2001C82.2 56.0001 83.4 55.1001 84.3 55.1001C84.7 55.1001 85.1 55.3001 85.1 55.8001C85.1 56.1001 85 56.6001 84.6 58.6001C84.4 59.4001 84.4 60.2001 84.4 60.7001C84.6 61.9001 85.1 62.7001 85.6 63.2001C85.8 63.4001 85.9 63.6001 85.9 63.7001C85.9 64.0001 85.7 64.3001 85.3 64.3001C85.2 64.3001 85 64.3001 84.9 64.2001C82.7 63.3001 81.8 61.8001 81.6 60.5001C80.8 61.6001 79.7 62.1001 78.5 62.1001C76.6 62.1001 74.7 60.4001 74.4 58.2001C74.3 57.3001 74.4 56.3001 74.7 55.4001C73.9 55.9001 73.1 56.2001 72.3 56.2001C72 56.2001 71.8 56.2001 71.6 56.2001C69.7 58.9001 67.7 60.8001 66.2 61.7001C65.6 62.0001 65 62.2001 64.6 62.2001C64.3 62.2001 63.9 62.1001 63.7 61.8001C63.1 61.4001 62.8 60.4001 62.7 59.2001ZM69.5 50.2001C69.5 51.4001 70.1 52.6001 70.8 53.4001C71.1 52.6001 71.3 51.8001 71.3 51.0001C71.3 49.5001 70.7 48.8001 70.3 48.8001C69.7 48.8001 69.5 49.6001 69.5 50.2001Z" fill="#986200"/>
</svg>
