<svg width="20" height="14" viewBox="0 0 20 14" fill="none" xmlns="http://www.w3.org/2000/svg">
<path d="M16.5 4.50996C15.7501 4.25167 15.0881 3.78725 14.59 3.16996C14.041 2.48219 13.3421 1.9291 12.5465 1.55298C11.7509 1.17687 10.8799 0.987704 10 0.999959C8.81637 0.916134 7.64458 1.2812 6.71801 2.02247C5.79143 2.76373 5.17804 3.82679 5 4.99996C5.35067 4.4132 5.87845 3.95283 6.50739 3.68508C7.13633 3.41733 7.834 3.35602 8.5 3.50996C9.24869 3.77577 9.90958 4.24289 10.41 4.85996C10.962 5.54223 11.6623 6.08961 12.4577 6.46045C13.2531 6.83128 14.1226 7.0158 15 6.99996C16.1836 7.08378 17.3554 6.71871 18.282 5.97745C19.2086 5.23619 19.822 4.17312 20 2.99996C19.6557 3.59373 19.1296 4.06106 18.4994 4.33296C17.8691 4.60486 17.1682 4.66691 16.5 4.50996ZM3.5 9.48996C4.24995 9.74825 4.91192 10.2127 5.41 10.83C5.95895 11.5177 6.65794 12.0708 7.4535 12.4469C8.24906 12.823 9.1201 13.0122 10 13C11.1836 13.0838 12.3554 12.7187 13.282 11.9775C14.2086 11.2362 14.822 10.1731 15 8.99996C14.6493 9.58671 14.1215 10.0471 13.4926 10.3148C12.8637 10.5826 12.166 10.6439 11.5 10.49C10.7513 10.2242 10.0904 9.75703 9.59 9.13996C9.03656 8.45938 8.33595 7.91319 7.54091 7.54252C6.74587 7.17185 5.8771 6.98634 5 6.99996C3.81637 6.91613 2.64458 7.2812 1.71801 8.02247C0.791428 8.76373 0.178042 9.82679 0 11C0.344307 10.4062 0.870408 9.93886 1.50063 9.66696C2.13086 9.39506 2.83181 9.33301 3.5 9.48996Z" fill="#FEF0DF"/>
</svg>
