<svg width="24" height="24" viewBox="0 0 24 24" fill="none" xmlns="http://www.w3.org/2000/svg">
<g clip-path="url(#clip0_35_21)">
<path d="M11.9999 24.0001C11.9979 24.0001 11.9949 24.0001 11.9929 24.0001C5.36592 24.0001 -0.00708008 18.6271 -0.00708008 12.0001C-0.00708008 7.05707 2.98192 2.81107 7.25192 0.97307L7.32992 0.94307C8.70792 0.34507 10.3139 -0.00292969 11.9999 -0.00292969C18.6289 -0.00292969 24.0029 5.37107 24.0029 12.0001C24.0029 16.9421 21.0159 21.1871 16.7489 23.0271L16.6709 23.0571C15.2999 23.6531 13.7019 24.0001 12.0239 24.0001C12.0159 24.0001 12.0079 24.0001 11.9999 24.0001ZM8.71992 19.3991C9.05892 19.7071 9.51192 19.8961 10.0089 19.8961C10.0649 19.8961 10.1209 19.8941 10.1769 19.8891H10.1699H10.2159C11.4829 19.8441 12.6789 19.7311 13.8529 19.5521L13.6809 19.5741C13.9519 19.5131 14.1889 19.3931 14.3879 19.2291L14.3849 19.2311C15.5339 18.8641 16.5309 18.3921 17.4499 17.8081L17.3969 17.8401C17.9109 17.4511 18.5219 17.1591 19.1849 17.0031L19.2179 16.9971C19.7699 16.8681 20.1739 16.3801 20.1739 15.7981C20.1739 15.7411 20.1699 15.6851 20.1629 15.6301L20.1639 15.6361C20.0749 15.0081 19.5409 14.5311 18.8959 14.5311C18.8729 14.5311 18.8509 14.5321 18.8289 14.5331H18.8319H18.8109C17.8449 14.6101 16.9709 14.9481 16.2429 15.4741L16.2579 15.4641C16.0909 15.5711 15.8939 15.6811 15.6889 15.7781L15.6549 15.7931C15.6629 15.6851 15.6679 15.5591 15.6679 15.4321C15.6679 14.8391 15.5629 14.2701 15.3699 13.7431L15.3809 13.7771C15.1289 13.0661 14.7469 12.4571 14.2589 11.9511L14.2609 11.9531C14.7969 11.2251 15.1909 10.3591 15.3839 9.41807L15.3909 9.37607C15.4669 9.00507 15.5109 8.57807 15.5109 8.14107C15.5109 7.28807 15.3439 6.47307 15.0419 5.72807L15.0569 5.77107C14.9619 5.58807 14.7969 5.45207 14.5989 5.39707L14.5939 5.39607C14.5289 5.37607 14.4539 5.36407 14.3769 5.36407C14.3759 5.36407 14.3759 5.36407 14.3749 5.36407C14.2569 5.36607 14.1439 5.38507 14.0369 5.41807L14.0459 5.41607C13.5819 4.45607 13.4159 4.34507 13.2939 4.26407C13.1469 4.16607 12.9659 4.10607 12.7719 4.10407H12.7709C12.6519 4.10407 12.5389 4.12607 12.4339 4.16607L12.4399 4.16407C11.9599 4.40507 11.5959 4.81707 11.4199 5.31707L11.4159 5.33107C11.3649 5.43907 11.3249 5.52907 11.2909 5.61407C10.3759 5.67407 9.56792 6.08707 8.99292 6.71707L8.99092 6.72007C8.85492 6.83507 8.69192 6.92507 8.51392 6.97807L8.50492 6.98007H8.50992C8.10992 7.12207 7.91792 7.45407 7.68992 8.05907C7.61692 8.28707 7.57492 8.54907 7.57492 8.82207C7.57492 9.36207 7.74092 9.86407 8.02492 10.2791L8.01892 10.2701C7.46792 10.7431 7.02292 11.3211 6.71192 11.9761L6.69892 12.0071C6.43992 12.6251 6.28892 13.3441 6.28892 14.0971C6.28892 14.1561 6.28992 14.2141 6.29192 14.2721V14.2631C5.83592 14.7091 5.51992 15.2971 5.41392 15.9551L5.41192 15.9721C5.40392 16.0591 5.39892 16.1601 5.39892 16.2621C5.39892 16.8751 5.57292 17.4471 5.87392 17.9331L5.86592 17.9191C5.91292 17.9921 5.96292 18.0561 6.01892 18.1141C6.00892 18.1701 6.00392 18.2351 6.00392 18.3011C6.00392 18.3761 6.01092 18.4501 6.02492 18.5221L6.02392 18.5151C6.09192 18.8481 6.30492 19.1201 6.59192 19.2671L6.59792 19.2701C6.96492 19.4681 7.40192 19.5861 7.86492 19.5901H7.86592H7.89692C8.19592 19.5901 8.47892 19.5211 8.73092 19.3971L8.71992 19.4021V19.3991ZM10.1859 19.1901C9.63092 19.1901 9.25192 19.0441 9.14592 18.7901C9.10592 18.6981 9.08292 18.5901 9.08292 18.4771C9.08292 18.1381 9.28992 17.8481 9.58492 17.7261L9.58992 17.7241L9.57992 17.7181C9.48392 17.6591 9.40092 17.5961 9.32392 17.5281L9.32592 17.5301C9.29492 17.4971 9.26592 17.4621 9.23892 17.4241L9.23692 17.4211C9.19492 17.3651 9.15692 17.3171 9.13492 17.3171C9.12892 17.3171 9.12292 17.3221 9.11792 17.3311C9.08192 17.4281 9.04692 17.5481 9.01992 17.6701L9.01692 17.6881C8.96392 18.0411 8.82692 18.3551 8.62792 18.6201L8.63192 18.6151C8.44592 18.7861 8.19692 18.8921 7.92392 18.8921C7.90392 18.8921 7.88492 18.8911 7.86592 18.8901H7.86892C7.52192 18.8831 7.19792 18.7951 6.91192 18.6441L6.92392 18.6501C6.81392 18.5991 6.73392 18.5011 6.70792 18.3821V18.3791C6.70892 18.1251 6.80492 17.8941 6.96192 17.7181L6.96092 17.7191C6.91392 17.7421 6.85892 17.7571 6.80092 17.7571C6.65192 17.7501 6.52492 17.6661 6.45792 17.5431L6.45692 17.5411C6.23392 17.1791 6.10192 16.7401 6.10192 16.2701C6.10192 16.1841 6.10592 16.0991 6.11492 16.0151L6.11392 16.0261C6.25392 15.4271 6.57192 14.9181 7.00892 14.5421L7.01292 14.5391C7.00092 14.4111 6.99392 14.2611 6.99392 14.1101C6.99392 13.4501 7.12492 12.8201 7.36292 12.2461L7.35092 12.2781C7.75092 11.5211 8.29692 10.8921 8.95792 10.4091L8.97292 10.3981C8.87092 10.2811 7.99692 9.24007 8.34692 8.30407C8.57292 7.69407 8.67492 7.66407 8.74692 7.63707L8.76092 7.63207C9.05292 7.54107 9.30292 7.39007 9.50792 7.19107H9.50692C10.0059 6.64607 10.7209 6.30607 11.5149 6.30607H11.5229H11.5439C11.6269 6.30607 11.7079 6.31207 11.7879 6.32207L11.7789 6.32107C11.8319 6.16607 12.3089 4.80107 12.7889 4.80107C12.8449 4.80207 12.8959 4.81907 12.9389 4.84807L12.9379 4.84707C13.2179 5.27107 13.4819 5.75807 13.7019 6.26807L13.7259 6.32907H13.7319C13.9199 6.21007 14.1379 6.11807 14.3699 6.06307L14.3839 6.06007C14.4219 6.06007 14.4459 6.07007 14.4579 6.09207C14.6599 6.54007 14.7849 7.06107 14.8029 7.61007V7.61707C14.8149 7.76407 14.8209 7.93507 14.8209 8.10807C14.8209 8.50807 14.7849 8.89907 14.7169 9.27907L14.7229 9.23907C14.5239 10.1671 14.1399 10.9831 13.6109 11.6821L13.6219 11.6671C13.5299 11.8011 13.4499 11.9161 13.3889 12.0191C13.3679 12.0531 13.4299 12.1091 13.5409 12.2121C14.0769 12.6901 14.4879 13.2981 14.7229 13.9871L14.7319 14.0161C14.8889 14.4561 14.9789 14.9641 14.9789 15.4931C14.9789 15.8061 14.9469 16.1121 14.8869 16.4071L14.8919 16.3781C14.8739 16.4421 14.8629 16.5151 14.8629 16.5911C14.8629 16.6271 14.8649 16.6631 14.8699 16.6981V16.6941L14.8879 16.7271H14.9099C15.5629 16.6501 16.1489 16.4101 16.6389 16.0481L16.6289 16.0551C17.2409 15.6031 17.9919 15.3051 18.8079 15.2311L18.8249 15.2301H18.8429C18.8629 15.2281 18.8859 15.2261 18.9099 15.2261C19.1999 15.2261 19.4409 15.4401 19.4829 15.7191V15.7221C19.4859 15.7421 19.4869 15.7651 19.4869 15.7891C19.4869 16.0441 19.3099 16.2571 19.0719 16.3131L19.0679 16.3141C18.2909 16.4931 17.6079 16.8171 17.0199 17.2601L17.0339 17.2501C16.1719 17.8001 15.1779 18.2621 14.1239 18.5871L14.0369 18.6101C13.9099 18.7571 13.7349 18.8591 13.5369 18.8921L13.5319 18.8931C12.5799 19.0371 11.4369 19.1431 10.2779 19.1871L10.2189 19.1891L10.1859 19.1901Z" fill="#FEF0DF"/>
</g>
<defs>
<clipPath id="clip0_35_21">
<rect width="24" height="24" fill="white"/>
</clipPath>
</defs>
</svg>
